# xmcd
#
# Track frame offsets:
# 150
# 26574
# 40385
# 60633
# 87929
# 100385
# 123429
# 138218
# 156484
# 176512
#
# Disc length: 2551 seconds
#
# Revision: 1
# Processed by: cddbd v1.5.1PL2 Copyright (c) Steve Scherf et al.
# Submitted via: CedeCatalogueitor 2.6.0.6 http://personales.ya.com/cdcatalogueitor
#
DISCID=8409f50a
DTITLE=John Mayall - The Best Of John Mayall And The Bluesbreakers
DYEAR=1900
DGENRE=
TTITLE0=Crawling Up A Hill
TTITLE1=Mr. James
TTITLE2=Heartache
TTITLE3=Cocodrile Wlak
TTITLE4=Blues City Shakedown
TTITLE5=Lonely Years
TTITLE6=Bernard Jenkins
TTITLE7=All Your Love
TTITLE8=Parchman Farm
TTITLE9=Looking Back
EXTD=
EXTT0=
EXTT1=
EXTT2=
EXTT3=
EXTT4=
EXTT5=
EXTT6=
EXTT7=
EXTT8=
EXTT9=
PLAYORDER=
